<svg width="3601" height="531" viewBox="0 0 3601 531" fill="none" xmlns="http://www.w3.org/2000/svg">
<rect x="1816" y="124" width="37.8403" height="283.802" fill="white"/>
<rect x="1997.63" y="248.873" width="37.8403" height="181.633" transform="rotate(90 1997.63 248.873)" fill="white"/>
<rect x="2066" y="124" width="38" height="250" transform="rotate(90 2066 124)" fill="white"/>
<rect x="2066" y="370" width="38" height="250" transform="rotate(90 2066 370)" fill="white"/>
<rect x="2430" y="124" width="37.8403" height="283.802" fill="white"/>
<rect x="2680" y="124" width="38" height="250" transform="rotate(90 2680 124)" fill="white"/>
<rect x="2680" y="370" width="38" height="250" transform="rotate(90 2680 370)" fill="white"/>
<rect x="694" y="124.08" width="37.8403" height="283.802" fill="white"/>
<rect x="838" y="124" width="38" height="250" transform="rotate(90 838 124)" fill="white"/>
<rect x="1509" y="124" width="37.8403" height="283.802" fill="white"/>
<rect x="1720.91" y="124" width="37.8403" height="283.802" fill="white"/>
<rect x="1758.75" y="124" width="37.8403" height="249.746" transform="rotate(90 1758.75 124)" fill="white"/>
<rect x="1758.75" y="369.961" width="37.8403" height="249.746" transform="rotate(90 1758.75 369.961)" fill="white"/>
<rect x="1202" y="124.008" width="37.8403" height="283.802" fill="white"/>
<rect x="1413.91" y="124.008" width="37.8403" height="283.802" fill="white"/>
<rect x="1451.75" y="124.008" width="37.8403" height="249.746" transform="rotate(90 1451.75 124.008)" fill="white"/>
<rect x="1451.75" y="248.875" width="37.8403" height="249.746" transform="rotate(90 1451.75 248.875)" fill="white"/>
<rect x="1451.75" y="286.715" width="37.8403" height="162.713" transform="rotate(-180 1451.75 286.715)" fill="white"/>
<rect x="3044" y="124.008" width="37.8403" height="283.802" fill="white"/>
<rect x="3255.91" y="124.008" width="37.8403" height="283.802" fill="white"/>
<rect x="3293.75" y="124.008" width="37.8403" height="249.746" transform="rotate(90 3293.75 124.008)" fill="white"/>
<rect x="3293.75" y="248.875" width="37.8403" height="249.746" transform="rotate(90 3293.75 248.875)" fill="white"/>
<rect x="3293.75" y="286.715" width="37.8403" height="162.713" transform="rotate(-180 3293.75 286.715)" fill="white"/>
<rect x="895" y="124" width="37.8403" height="283.802" fill="white"/>
<rect x="1144.75" y="124" width="37.8403" height="249.746" transform="rotate(90 1144.75 124)" fill="white"/>
<rect x="1144.75" y="248.873" width="37.8403" height="249.746" transform="rotate(90 1144.75 248.873)" fill="white"/>
<rect x="1144.75" y="286.715" width="37.8403" height="162.713" transform="rotate(-180 1144.75 286.715)" fill="white"/>
<path d="M1156.1 406.617L1111.34 406.617L1031.87 268.981L1064.64 250.06L1156.1 406.617Z" fill="white"/>
<rect x="2123" y="124" width="37.8403" height="283.802" fill="white"/>
<rect x="2372.75" y="124" width="37.8403" height="249.746" transform="rotate(90 2372.75 124)" fill="white"/>
<rect x="2372.75" y="248.873" width="37.8403" height="249.746" transform="rotate(90 2372.75 248.873)" fill="white"/>
<rect x="2372.75" y="286.715" width="37.8403" height="162.713" transform="rotate(-180 2372.75 286.715)" fill="white"/>
<path d="M2384.1 406.617L2339.34 406.617L2259.87 268.981L2292.64 250.06L2384.1 406.617Z" fill="white"/>
<rect x="2737" y="124" width="37.8403" height="283.802" fill="white"/>
<rect x="2987" y="370" width="38" height="250" transform="rotate(90 2987 370)" fill="white"/>
<rect x="3600.84" y="407.801" width="37.8403" height="283.802" transform="rotate(-180 3600.84 407.801)" fill="white"/>
<rect x="3388.84" y="407.801" width="37.8403" height="283.802" transform="rotate(-180 3388.84 407.801)" fill="white"/>
<rect x="3351" y="407.801" width="37.8403" height="249.746" transform="rotate(-90 3351 407.801)" fill="white"/>
<rect x="3457" y="237.998" width="37.8403" height="166.497" fill="white"/>
<rect x="531" y="247" width="38" height="531" transform="rotate(90 531 247)" fill="#F93728"/>
<rect x="465.859" y="439.211" width="38" height="531" transform="rotate(135 465.859 439.211)" fill="#F93728"/>
<rect x="284" y="531" width="38" height="531" transform="rotate(-180 284 531)" fill="#F93728"/>
<rect x="90.8047" y="465.859" width="38" height="531" transform="rotate(-135 90.8047 465.859)" fill="#F93728"/>
</svg>
